# xmcd
#
# Track frame offsets:
#	150
#	30799
#	46860
#	68548
#	88532
#	109702
#	130708
#	151177
#	172672
#	193949
#	212824
#	231868
#	247733
#	266954
#	308273
#	332980
#
# Disc length: 4702 seconds
#
# Revision: 0
# Processed by: cddbd v1.4PL0 Copyright (c) Steve Scherf et al.
# Submitted via: audiograbber 1.81.03
#
DISCID=c2125c10
DTITLE=Chris Rea - Forever Gold Disc 2
DYEAR=1900
DGENRE=
TTITLE0=ON THE BEACH
TTITLE1=I JUST WANNA BE WITH YOU
TTITLE2=BETWEEN THE DEVIL AND THE DEEP BLUE SEA
TTITLE3=THAT'S WHAT THEY ALWAYS SAY
TTITLE4=CANDLES
TTITLE5=AUBERGE
TTITLE6=WINTER SONG
TTITLE7=THE BLUE CAFE
TTITLE8=AS LONG AS I HAVE YOUR LOVE
TTITLE9=GOD'S GREAT BANANA SKIN
TTITLE10=LET'S DANCE
TTITLE11=SING A SONG OF LOVE ME
TTITLE12=LITTLE BLONDE PLAITS
TTITLE13=NOTHING TO FEAR
TTITLE14=YOU MUST FOLLOW
TTITLE15=IF YOU WHERE ME
EXTD=
EXTT0=
EXTT1=
EXTT2=
EXTT3=
EXTT4=
EXTT5=
EXTT6=
EXTT7=
EXTT8=
EXTT9=
EXTT10=
EXTT11=
EXTT12=
EXTT13=
EXTT14=
EXTT15=
PLAYORDER=
